<svg width="110" height="80" viewBox="0 0 110 80" fill="none" xmlns="http://www.w3.org/2000/svg">
<path fill-rule="evenodd" clip-rule="evenodd" d="M42.75 28.375C41.656 28.375 40.6068 28.8096 39.8332 29.5832C39.0596 30.3568 38.625 31.406 38.625 32.5V47.5C38.625 48.594 39.0596 49.6432 39.8332 50.4168C40.6068 51.1904 41.656 51.625 42.75 51.625H66.75C67.844 51.625 68.8932 51.1904 69.6668 50.4168C70.4404 49.6432 70.875 48.594 70.875 47.5V32.5C70.875 31.406 70.4404 30.3568 69.6668 29.5832C68.8932 28.8096 67.844 28.375 66.75 28.375H42.75ZM47.895 34.579C47.6505 34.4194 47.3535 34.3612 47.0668 34.4166C46.7801 34.472 46.5262 34.6366 46.3587 34.8758C46.1912 35.115 46.1233 35.4099 46.1692 35.6982C46.2152 35.9866 46.3715 36.2458 46.605 36.421L54.105 41.671C54.2941 41.8033 54.5192 41.8743 54.75 41.8743C54.9808 41.8743 55.2059 41.8033 55.395 41.671L62.895 36.421C63.0213 36.3386 63.1298 36.2316 63.2139 36.1064C63.2981 35.9812 63.3562 35.8404 63.3848 35.6922C63.4134 35.5441 63.4119 35.3918 63.3805 35.2443C63.349 35.0968 63.2882 34.9571 63.2017 34.8335C63.1152 34.71 63.0047 34.6051 62.8768 34.5251C62.7489 34.4451 62.6062 34.3916 62.4573 34.3679C62.3083 34.3441 62.1561 34.3506 62.0097 34.3869C61.8633 34.4231 61.7257 34.4885 61.605 34.579L54.75 39.3775L47.895 34.579Z" fill="#00A3FF" style="fill:#00A3FF;fill:color(display-p3 0.0000 0.6392 1.0000);fill-opacity:1;"/>
</svg>
