<svg width="360" height="360" viewBox="0 0 360 360" fill="none" xmlns="http://www.w3.org/2000/svg">
<rect width="360" height="360" fill="white" style="fill:white;fill-opacity:1;"/>
<g clip-path="url(#clip0_35_12)">
<path fill-rule="evenodd" clip-rule="evenodd" d="M117.109 115.242C123.359 120.31 125.672 119.949 137.422 119.149L247.625 112.496C249.969 112.496 248.016 110.158 247.234 109.766L228.875 96.4756C226.524 94.4675 223.779 92.9784 220.818 92.1053C217.857 91.2321 214.746 90.9944 211.688 91.4074L104.984 99.2529C101.094 99.6295 100.297 101.591 101.859 103.16L117.062 115.273L117.109 115.242ZM123.719 141.038V257.48C123.719 263.756 126.844 266.078 133.844 265.686L254.969 258.656C261.984 258.264 262.781 253.949 262.781 248.881V133.208C262.781 128.14 260.828 125.362 256.531 125.786L129.969 133.208C125.281 133.6 123.719 135.954 123.719 141.053V141.038ZM243.297 147.314C244.062 150.829 243.297 154.344 239.781 154.736L234 155.881V241.851C228.937 244.582 224.266 246.135 220.375 246.135C214.125 246.135 212.562 244.189 207.875 238.29L169.672 178.147V236.375L181.75 239.106C181.75 239.106 181.75 246.135 172.016 246.135L145.141 247.704C144.359 246.135 145.141 242.244 147.875 241.428L154.875 239.466V162.518L145.141 161.734C144.895 160.697 144.878 159.62 145.09 158.576C145.303 157.532 145.74 156.548 146.371 155.691C147.002 154.835 147.812 154.127 148.744 153.618C149.675 153.109 150.707 152.81 151.766 152.743L180.578 150.797L220.312 211.803V157.827L210.188 156.666C210.009 155.728 210.034 154.762 210.263 153.835C210.491 152.908 210.917 152.042 211.511 151.296C212.106 150.55 212.854 149.943 213.704 149.515C214.554 149.088 215.487 148.851 216.438 148.82L243.328 147.251L243.297 147.314ZM96.0625 88.6615L207 80.4552C220.703 79.2784 224.203 80.0786 232.766 86.2765L268.203 111.382C274.047 115.681 276.016 116.842 276.016 121.534V258.703C276.016 267.286 272.891 272.37 261.953 273.155L133.047 281C124.859 281.392 120.969 280.216 116.688 274.724L90.625 240.675C85.9375 234.398 84 229.691 84 224.262V102.344C84 95.3145 87.125 89.4147 96.0625 88.6615Z" fill="black" style="fill:black;fill-opacity:1;"/>
</g>
<defs>
<clipPath id="clip0_35_12">
<rect width="192" height="201" fill="white" style="fill:white;fill-opacity:1;" transform="translate(84 80)"/>
</clipPath>
</defs>
</svg>
