<svg width="360" height="360" viewBox="0 0 360 360" fill="none" xmlns="http://www.w3.org/2000/svg">
<rect width="360" height="360" fill="white" style="fill:white;fill-opacity:1;"/>
<path d="M97.404 102H223.846C229.128 102.397 234.05 104.828 237.575 108.781C241.099 112.733 242.951 117.9 242.739 123.19C254.945 116.244 267.589 110.056 279.942 103.401C279.942 113.763 279.942 124.095 279.942 134.457C250.993 150.023 221.938 165.318 192.776 180.34C221.656 196.042 251.178 210.432 280 226.31C279.825 236.73 280 247.179 280 257.599C267.648 250.915 255.091 244.64 242.885 237.693C243.129 242.994 241.299 248.182 237.784 252.158C234.269 256.135 229.343 258.589 224.05 259H99.0101C89.4028 258.504 80.438 251.645 80 241.487V207.747C97.5208 198.99 115.042 189.621 132.562 180.34C114.837 171.817 97.7252 162.126 80 153.516V119.629C80.4354 115.14 82.4028 110.938 85.572 107.728C88.7412 104.517 92.9191 102.495 97.404 102ZM97.404 131.188C119.159 142.337 140.797 153.691 162.523 164.899C183.723 153.487 205.245 142.688 226.445 131.217C183.519 131.158 140.505 131.217 97.5208 131.129L97.404 131.188ZM97.6084 229.783C140.739 230.075 183.928 229.783 227.087 229.958C205.683 218.283 183.84 207.63 162.494 195.896C141.06 207.28 119.451 218.429 97.7252 229.725L97.6084 229.783Z" fill="black" style="fill:black;fill-opacity:1;"/>
</svg>
