<svg width="110" height="80" viewBox="0 0 110 80" fill="none" xmlns="http://www.w3.org/2000/svg">
<path d="M47.9145 30.0249C48.873 30.0249 49.7595 30.0999 50.5695 30.3219C51.381 30.4704 52.0455 30.7674 52.635 31.1379C53.226 31.5089 53.6685 32.0284 53.9625 32.6964C54.258 33.3639 54.4065 34.1814 54.4065 35.0709C54.4065 36.1104 54.1845 36.9999 53.6685 37.6674C53.226 38.3364 52.488 38.9289 51.603 39.3744C52.857 39.7464 53.8155 40.4139 54.4065 41.3034C54.9975 42.1929 55.365 43.3074 55.365 44.5689C55.365 45.6084 55.143 46.4979 54.774 47.2404C54.4065 47.9829 53.8155 48.6504 53.151 49.0959C52.4289 49.5729 51.6311 49.9239 50.7915 50.1339C49.9065 50.3574 49.0215 50.5059 48.1365 50.5059H38.25V30.0249H47.9145ZM47.3235 38.3349C48.135 38.3349 48.7995 38.1129 49.3155 37.7424C49.8315 37.3719 50.0535 36.7029 50.0535 35.8869C50.0535 35.4414 49.9785 34.9959 49.8315 34.7004C49.6845 34.4049 49.4625 34.1799 49.1685 33.9579C48.8679 33.7891 48.5446 33.6643 48.2085 33.5874C47.8395 33.5124 47.472 33.5124 47.028 33.5124H42.75V38.3364L47.3235 38.3349ZM47.5455 47.0919C47.988 47.0919 48.4305 47.0169 48.7995 46.9434C49.1685 46.8684 49.5375 46.7214 49.8315 46.4979C50.1309 46.2794 50.3821 46.0017 50.5695 45.6819C50.7165 45.3114 50.865 44.8659 50.865 44.3469C50.865 43.3074 50.5695 42.5649 49.98 42.0459C49.389 41.6004 48.5775 41.3784 47.619 41.3784H42.75V47.0934L47.5455 47.0919ZM61.7835 47.0169C62.3735 47.6109 63.2585 47.9079 64.4385 47.9079C65.25 47.9079 65.988 47.6859 66.5775 47.3154C67.1685 46.8694 67.5375 46.4239 67.6845 45.9789H71.2995C70.7085 47.7594 69.8235 49.0209 68.6445 49.8369C67.4625 50.5794 66.0615 51.0249 64.365 51.0249C63.2797 51.0265 62.2037 50.825 61.1925 50.4309C60.2822 50.0914 59.4708 49.5305 58.8315 48.7989C58.145 48.1169 57.6383 47.2753 57.357 46.3494C56.988 45.3849 56.8395 44.3469 56.8395 43.1589C56.8395 42.0459 56.988 41.0079 57.357 40.0419C57.711 39.1113 58.2366 38.2555 58.9065 37.5189C59.5695 36.8514 60.381 36.2589 61.266 35.8869C62.2512 35.4914 63.3034 35.2897 64.365 35.2929C65.619 35.2929 66.726 35.5164 67.6845 36.0354C68.6445 36.5544 69.381 37.1484 69.9705 38.0394C70.5615 38.8554 71.0055 39.8199 71.2995 40.8594C71.4465 41.8974 71.52 42.9369 71.4465 44.1234H60.75C60.75 45.3114 61.1925 46.4244 61.7835 47.0184M66.4305 39.2274C65.9145 38.7084 65.103 38.4114 64.143 38.4114C63.5801 38.403 63.0235 38.53 62.52 38.7819C62.0775 39.0054 61.7835 39.3024 61.488 39.5994C61.2148 39.8851 61.0348 40.2471 60.972 40.6374C60.897 41.0094 60.8235 41.3049 60.8235 41.6019H67.4625C67.3155 40.4889 66.9465 39.7479 66.4305 39.2274ZM59.9385 31.4349H68.2005V33.4389H59.94L59.9385 31.4349Z" fill="#00A3FF" style="fill:#00A3FF;fill:color(display-p3 0.0000 0.6392 1.0000);fill-opacity:1;"/>
</svg>
