<svg width="110" height="80" viewBox="0 0 110 80" fill="none" xmlns="http://www.w3.org/2000/svg">
<path d="M55.8386 36.1677V35.1703H58.8319V49.1825H57.1208C56.7821 49.183 56.4569 49.0497 56.2166 48.8117C55.9763 48.5736 55.8403 48.2503 55.8386 47.9124C54.5893 48.8251 53.0804 49.3181 51.5319 49.3154C49.5972 49.3154 47.7416 48.5492 46.3732 47.1851C45.0047 45.8211 44.2353 43.9708 44.2341 42.0412C44.2353 40.1115 45.0047 38.2613 46.3732 36.8972C47.7416 35.5331 49.5972 34.7669 51.5319 34.7669C53.0797 34.7647 54.5899 35.2554 55.8386 36.1677ZM43.4586 30.6665V31.1209C43.4586 31.9675 43.3452 32.6591 42.7919 33.4703L42.7252 33.5456C42.5411 33.752 42.3618 33.9626 42.1875 34.1773L32.5808 46.2036H43.4586V47.9058C43.4586 48.0736 43.4254 48.2398 43.3609 48.3949C43.2965 48.5499 43.202 48.6907 43.0829 48.8093C42.9638 48.9279 42.8224 49.0219 42.6669 49.0859C42.5113 49.1499 42.3446 49.1827 42.1763 49.1825H28.083V48.3801C28.083 47.3982 28.3275 46.9594 28.6386 46.5028L38.8786 33.8581H28.5097V30.6665H43.4586ZM62.4608 49.1825C62.1779 49.1825 61.9066 49.0704 61.7065 48.8709C61.5065 48.6713 61.3941 48.4007 61.3941 48.1186V30.6665H64.5963V49.1825H62.4608ZM74.0675 34.6782C75.0322 34.6779 75.9876 34.8672 76.8791 35.2351C77.7705 35.6031 78.5806 36.1426 79.263 36.8228C79.9454 37.503 80.4868 38.3106 80.8563 39.1995C81.2257 40.0884 81.4161 41.0412 81.4163 42.0035C81.4166 42.9657 81.2269 43.9186 80.858 44.8078C80.489 45.6969 79.9481 46.5048 79.2661 47.1854C78.5841 47.8661 77.7744 48.406 76.8832 48.7746C75.992 49.1431 75.0367 49.3329 74.0719 49.3332C72.1234 49.3338 70.2546 48.5623 68.8764 47.1886C67.4982 45.8148 66.7236 43.9513 66.723 42.0079C66.7224 40.0645 67.4959 38.2005 68.8732 36.826C70.2506 35.4514 72.119 34.6788 74.0675 34.6782ZM51.5341 46.3211C52.106 46.334 52.6747 46.2329 53.2069 46.0236C53.739 45.8143 54.2238 45.501 54.6329 45.1022C55.042 44.7034 55.367 44.2271 55.5889 43.7012C55.8108 43.1754 55.9251 42.6106 55.9251 42.0401C55.9251 41.4695 55.8108 40.9047 55.5889 40.3789C55.367 39.853 55.042 39.3767 54.6329 38.9779C54.2238 38.5791 53.739 38.2658 53.2069 38.0565C52.6747 37.8472 52.106 37.7461 51.5341 37.759C50.4127 37.7845 49.3457 38.2467 48.5616 39.0468C47.7775 39.8468 47.3385 40.9212 47.3385 42.0401C47.3385 43.1589 47.7775 44.2333 48.5616 45.0333C49.3457 45.8334 50.4127 46.2956 51.5341 46.3211ZM74.0675 46.3144C75.2138 46.3144 76.3132 45.8602 77.1237 45.0518C77.9343 44.2433 78.3897 43.1468 78.3897 42.0035C78.3897 40.8601 77.9343 39.7636 77.1237 38.9552C76.3132 38.1467 75.2138 37.6925 74.0675 37.6925C72.9211 37.6925 71.8218 38.1467 71.0112 38.9552C70.2006 39.7636 69.7452 40.8601 69.7452 42.0035C69.7452 43.1468 70.2006 44.2433 71.0112 45.0518C71.8218 45.8602 72.9211 46.3144 74.0675 46.3144Z" fill="#00A3FF" style="fill:#00A3FF;fill:color(display-p3 0.0000 0.6392 1.0000);fill-opacity:1;"/>
</svg>
