<svg width="24" height="24" viewBox="0 0 24 24" fill="none" xmlns="http://www.w3.org/2000/svg">
<path d="M7.36678 6.08633C7.61032 5.46902 7.73209 5.16036 7.9068 5.06985C8.05829 4.99137 8.23846 4.99137 8.38994 5.06985C8.56466 5.16036 8.68643 5.46902 8.92997 6.08633L13.6173 17.9672C13.8513 18.5605 13.9684 18.8572 13.9052 19.0405C13.8504 19.1996 13.7227 19.3228 13.5618 19.3719C13.3763 19.4284 13.084 19.3008 12.4995 19.0456L8.48453 17.293C8.36067 17.2389 8.29874 17.2119 8.23444 17.2012C8.17745 17.1917 8.11929 17.1917 8.0623 17.2012C7.99801 17.2119 7.93608 17.2389 7.81222 17.293L3.79725 19.0456C3.2127 19.3008 2.92042 19.4284 2.73494 19.3719C2.574 19.3228 2.44631 19.1996 2.39153 19.0405C2.32838 18.8572 2.44542 18.5605 2.67949 17.9672L7.36678 6.08633Z" fill="#20ADFF" style="fill:#20ADFF;fill:color(display-p3 0.1250 0.6776 1.0000);fill-opacity:1;"/>
<path fill-rule="evenodd" clip-rule="evenodd" d="M16.0932 18.8948C15.9417 18.9732 15.7615 18.9732 15.61 18.8948C15.4354 18.8042 15.3135 18.4953 15.07 17.8782L10.3827 5.99742C10.1487 5.40411 10.0316 5.1074 10.0948 4.92406L10.1059 4.89465C10.1656 4.74987 10.2873 4.63875 10.4382 4.59277L10.4559 4.58798C10.6182 4.54994 10.8606 4.64171 11.2946 4.82935L11.5005 4.91893L15.5162 6.67194C15.6396 6.72578 15.7014 6.75276 15.7655 6.76342C15.8225 6.77289 15.8807 6.77288 15.9377 6.76342C16.0019 6.75274 16.064 6.72563 16.1877 6.67162L20.2027 4.91893L20.4086 4.82935C20.8587 4.63476 21.1028 4.5433 21.2651 4.59277C21.4159 4.63875 21.5376 4.74987 21.5974 4.89465L21.6085 4.92406C21.6716 5.1074 21.5546 5.40411 21.3205 5.99742L16.6331 17.8785C16.3897 18.4956 16.2679 18.8042 16.0932 18.8948ZM12.8198 7.40497L14.8151 8.27594C14.8187 8.27748 14.8239 8.27983 14.8306 8.28289C14.9063 8.31724 15.1769 8.44009 15.4787 8.49022L15.525 8.49739C15.7416 8.52881 15.9616 8.52881 16.1783 8.49739L16.2246 8.49022L16.2857 8.47902C16.5623 8.42377 16.8021 8.31489 16.8727 8.28289C16.8794 8.27983 16.8846 8.27748 16.8881 8.27594L18.8834 7.40497L15.8516 15.0896L12.8198 7.40497Z" fill="black" style="fill:black;fill-opacity:1;"/>
</svg>
